<?xml version="1.0" encoding="UTF-8"?>
<svg id="katman_2" data-name="katman 2" xmlns="http://www.w3.org/2000/svg" viewBox="0 0 69.03 33.6">
  <defs>
    <style>
      .cls-1 {
        fill: none;
      }

      .cls-2 {
        fill: #512615;
      }

      .cls-3 {
        isolation: isolate;
      }

      .cls-4 {
        fill: #b65117;
      }
    </style>
  </defs>
  <g id="katman_1" data-name="katman 1">
    <g>
      <g class="cls-3">
        <path class="cls-4" d="M.23,26.09l.3-1.08c.79,0,1.4-.08,1.85-.26.44-.17.79-.49,1.05-.96s.5-1.12.71-1.97l3.04-11.91c.13-.5.22-.93.3-1.29.07-.36.11-.66.11-.92,0-.56-.2-.91-.61-1.06-.4-.15-1.09-.23-2.06-.23l.3-1.08h8.75l-.3,1.08c-.79,0-1.41.11-1.87.34-.46.22-.84.66-1.15,1.29-.31.64-.62,1.57-.94,2.79l-2.8,10.67c-.07.29-.13.56-.18.81-.04.25-.07.48-.07.7,0,.65.22,1.13.67,1.44.45.31,1.23.47,2.34.47,1.44,0,2.62-.17,3.56-.5.93-.33,1.72-.87,2.36-1.6.64-.74,1.21-1.72,1.71-2.96h1.27l-2.37,6.22H.23Z"/>
        <path class="cls-4" d="M23.13,24.42c.29,0,.66-.2,1.13-.59.47-.4.96-.93,1.48-1.62.52-.68,1.03-1.46,1.52-2.32.49-.86.91-1.76,1.25-2.69l1.99-5.39h2.51l-1.99,6.17c-.38,1.2-.68,2.18-.92,2.92-.23.75-.4,1.33-.5,1.75-.1.42-.15.75-.15.98,0,.47.16.7.48.7.25,0,.55-.15.89-.44.34-.3.69-.68,1.04-1.16.35-.48.64-.98.88-1.52l.81.4c-.31.79-.73,1.55-1.28,2.28-.55.73-1.14,1.32-1.78,1.78s-1.27.69-1.9.69c-.56,0-.93-.2-1.13-.61-.2-.4-.3-.96-.3-1.68,0-.31.01-.63.04-.98.03-.35.08-.7.15-1.04l-.08-.08c-.63,1.13-1.24,2.02-1.85,2.65-.6.64-1.19,1.09-1.75,1.35-.57.26-1.11.39-1.63.39-.83,0-1.41-.23-1.75-.7-.34-.47-.51-1.04-.51-1.72,0-.75.14-1.58.43-2.49.29-.91.59-1.76.92-2.57.43-1.08.78-1.94,1.04-2.59s.44-1.15.55-1.52c.11-.37.16-.64.16-.82,0-.07-.01-.14-.04-.2-.03-.06-.09-.09-.2-.09-.23,0-.57.21-1.01.62-.44.41-1.04,1.08-1.79,1.99l-.7-.38c.36-.7.83-1.38,1.43-2.05.59-.66,1.23-1.21,1.9-1.64.67-.43,1.3-.65,1.87-.65.43,0,.76.13,1,.4.23.27.35.66.35,1.16,0,.63-.18,1.44-.53,2.44s-.8,2.19-1.36,3.57c-.34.88-.63,1.67-.88,2.37-.24.7-.36,1.34-.36,1.91,0,.38.05.64.16.79s.24.23.4.23Z"/>
        <path class="cls-4" d="M51.52,17.12c.32-.9.56-1.56.7-1.98.14-.42.23-.73.27-.92.04-.19.05-.35.05-.5,0-.52-.18-.78-.54-.78-.48,0-1.06.33-1.72,1-.67.66-1.38,1.61-2.16,2.83-.27.43-.52.87-.75,1.32-.23.45-.48.99-.74,1.63-.26.64-.58,1.46-.94,2.48-.37,1.01-.83,2.31-1.39,3.89h-2.53l1.78-5.41c.5-1.53.89-2.74,1.17-3.65.28-.91.48-1.6.59-2.09.12-.48.18-.85.18-1.1,0-.59-.22-.89-.67-.89-.36,0-.79.2-1.28.61-.49.4-1.01.95-1.54,1.63-.53.68-1.03,1.44-1.51,2.26-.48.83-.88,1.67-1.2,2.53l-2.26,6.11h-2.37l1.99-6.17c.45-1.4.79-2.51,1.04-3.31s.41-1.42.51-1.85c.1-.42.15-.75.15-.98,0-.5-.15-.75-.46-.75-.25,0-.56.2-.93.61-.37.4-.73.93-1.09,1.59-.36.66-.67,1.37-.94,2.14l-.81-.4c1.24-3.61,2.84-5.41,4.79-5.41.57,0,.98.16,1.23.48s.36.86.36,1.62c0,.86-.15,1.69-.46,2.48l.08.08c.83-1.54,1.68-2.71,2.57-3.49.89-.78,1.8-1.17,2.73-1.17.7,0,1.25.22,1.64.65.39.43.59,1.01.59,1.75,0,.25-.03.54-.09.86-.06.32-.18.8-.36,1.43l.05.08c.68-1.15,1.32-2.07,1.9-2.76.58-.69,1.16-1.2,1.74-1.52s1.18-.48,1.8-.48c.47,0,.86.08,1.17.24s.55.42.7.77c.15.35.23.79.23,1.33,0,.5-.1,1.13-.31,1.87-.21.75-.55,1.84-1.04,3.27-.31.92-.55,1.65-.73,2.21s-.31.99-.4,1.29-.15.54-.17.71c-.03.17-.04.34-.04.5,0,.34.09.51.27.51s.42-.11.71-.34c.3-.22.66-.57,1.09-1.04.43-.47.93-1.06,1.51-1.78l.7.38c-.3.59-.69,1.18-1.16,1.76s-.97,1.11-1.51,1.58c-.54.47-1.06.84-1.56,1.12-.5.28-.94.42-1.32.42-.45,0-.8-.19-1.06-.58-.26-.39-.39-.9-.39-1.55,0-.22.03-.46.08-.74.05-.28.15-.66.3-1.15.14-.48.35-1.14.63-1.98.28-.84.65-1.92,1.12-3.25Z"/>
        <path class="cls-4" d="M58.53,20.65l1.21-3.45c.25-.7.43-1.27.54-1.71.11-.44.16-.78.16-1.01,0-.25-.04-.42-.12-.5-.08-.08-.17-.12-.26-.12-.25,0-.54.15-.88.46-.33.31-.63.64-.9,1-.27.36-.46.64-.57.83l-.78-.48c.21-.41.52-.85.9-1.32.39-.47.83-.92,1.32-1.35.49-.43,1-.78,1.51-1.05s1-.4,1.47-.4.79.13,1.01.39c.22.26.34.73.34,1.41,0,.34-.07.76-.22,1.27-.14.5-.34,1.1-.59,1.79-.25.69-.55,1.5-.89,2.44l-1,2.72c-.04.13-.1.32-.2.59-.1.27-.18.54-.26.82-.07.28-.11.51-.11.69,0,.16.04.31.13.43.09.13.23.19.43.19.27,0,.55-.11.84-.32.29-.22.57-.48.85-.81s.52-.64.73-.94.36-.55.47-.73l.81.46c-.21.43-.51.9-.88,1.41-.37.51-.79,1-1.25,1.45-.47.46-.98.83-1.54,1.12-.56.29-1.13.43-1.72.43-.52,0-.91-.14-1.17-.42-.26-.28-.39-.72-.39-1.33,0-.52.08-1.08.26-1.68.17-.6.42-1.36.74-2.28Z"/>
        <rect class="cls-1" width="65.04" height="33.6"/>
      </g>
      <path class="cls-4" d="M59.15,8.54c-1.69-1.6-3.29-4.66-1.49-6.63.08-.08.21-.06.26.05.39.97,1.47,2.4,2.25,3,.07.05.07.13.02.2-.54.68-.86,2.34-.77,3.26.01.15-.15.23-.26.13Z"/>
      <path class="cls-4" d="M62.84,2.64c-.73.46-1.66,1.26-2.19,1.89-.06.07-.15.09-.23.04-.79-.51-1.98-2.11-2.23-3.04-.02-.08.02-.17.09-.21,1.42-.88,3.67.13,4.6,1.04.08.08.06.22-.04.28Z"/>
      <path class="cls-2" d="M60.17,9.32c4.36.13,4.37-5.54,8.28-6.65-3.74-3-10.43,3.01-8.28,6.65Z"/>
      <path class="cls-2" d="M69,3.27c-4.22.52-4.27,6.38-8.25,6.73,4.35,1.82,8.62-2.14,8.25-6.73Z"/>
    </g>
  </g>
</svg>